<svg width="186" height="28" viewBox="0 0 186 28" fill="none" xmlns="http://www.w3.org/2000/svg">
<path d="M134.271 6.47266H140.583L141.878 8.25303L146.086 14.4034L147.867 17.1549L149.323 19.4208L149.162 6.47266H155.474V27.999H148.838L146.248 24.1145L144.63 21.8486L142.04 18.126L140.422 15.3745V18.126L140.583 22.8197V27.999H134.109V6.79636L134.271 6.47266Z" fill="white"/>
<path d="M67.2656 6.47363H78.7571L81.9942 6.95919L83.9364 7.6066L85.8786 8.57771L87.659 10.1962L88.7919 11.9766L89.4394 13.4333L89.9249 15.3755V18.9362L89.2775 21.5259L88.1445 23.7918L86.6879 25.4103L84.9075 26.7051L82.6416 27.6763L81.1849 28H67.2656V6.47363ZM73.9016 11.3292V23.6299H77.1386L79.2427 23.3062L81.023 22.6588L82.3179 21.5259L83.1271 19.9074L83.289 19.0981V15.5373L82.6416 13.757L81.5086 12.4622L80.0519 11.6529L78.1097 11.3292H73.9016Z" fill="white"/>
<path d="M0.742188 6.47363H6.73071L6.89257 6.63548V14.7281L8.02553 13.757L8.67294 13.4333V13.1096H8.99664L9.15849 12.624L10.4533 11.491L11.91 10.0344L13.2048 8.90141L14.4996 7.6066L15.7944 6.47363H23.5633L23.2396 7.12104L21.1355 9.06327L16.28 13.4333L14.9852 14.5662L16.1181 16.3466L18.2222 19.2599L20.4881 22.497L22.4304 25.2485L24.2107 27.6763V28H16.7655L15.4707 26.0577L14.0141 23.9537L11.91 20.8785L10.4533 18.7744L9.32035 19.7455L8.02553 20.8785L7.05442 21.6877L6.89257 28H0.742188V6.47363Z" fill="white"/>
<path d="M107.562 6.47363H114.359L115.978 10.1962L119.377 18.127L120.348 20.5548L121.481 22.9825L122.937 26.5433L123.585 28H116.463L115.33 24.9248H106.429L105.457 27.6763L105.296 28H98.3359L98.8215 26.5433L101.087 21.2022L101.897 19.4218L103.515 15.6992L107.4 6.63548L107.562 6.47363ZM110.799 12.3003L109.018 17.6414L108.047 20.2311V20.5548H113.874L112.741 17.3177L110.96 12.3003H110.799Z" fill="white"/>
<path d="M40.7178 6.47363H47.5155L48.6485 8.90141L52.0474 16.8322L53.3422 19.9074L54.4752 22.6588L55.2844 24.4392L56.5793 27.5144L56.7411 28H49.6196L48.4867 24.9248L39.5848 24.7629L39.2611 26.0577L38.6137 27.8381L38.4518 28H31.4922L32.3014 25.8959L33.7581 22.497L34.5674 20.7166L36.9952 15.0518L39.5848 9.06327L40.7178 6.47363ZM43.9548 12.4622L42.1744 17.8033L41.2033 20.5548H47.03L46.3826 18.4507L45.2496 15.3755L44.2785 12.624L43.9548 12.4622Z" fill="white"/>
<path d="M165.992 6.47363H185.253V11.0055H179.102V28H172.466V11.3292L172.628 11.0055H166.154L165.992 10.8436V6.47363Z" fill="white"/>
<path d="M32.4609 0H55.7676V3.88445H32.4609V3.7226V0Z" fill="white"/>
</svg>
