<svg width="134" height="22" viewBox="0 0 134 22" fill="none" xmlns="http://www.w3.org/2000/svg">
<path d="M96.973 5.53418H101.557L102.498 6.82717L105.554 11.2939L106.847 13.2921L107.905 14.9378L107.787 5.53418H112.371V21.1676H107.552L105.671 18.3466L104.496 16.7009L102.615 13.9974L101.44 11.9991V13.9974L101.557 17.4062V21.1676H96.8555V5.76927L96.973 5.53418Z" fill="#1D1D1D"/>
<path d="M48.3105 5.53418H56.6562L59.0071 5.88681L60.4177 6.35699L61.8282 7.06226L63.1212 8.23771L63.944 9.5307L64.4142 10.5886L64.7668 11.9991V14.5851L64.2966 16.4658L63.4738 18.1115L62.4159 19.2869L61.1229 20.2273L59.4773 20.9325L58.4194 21.1676H48.3105V5.53418ZM53.1299 9.06052V17.9939H55.4808L57.0089 17.7588L58.3019 17.2887L59.2422 16.4658L59.8299 15.2904L59.9475 14.7027V12.1167L59.4773 10.8237L58.6545 9.88334L57.5966 9.29561L56.186 9.06052H53.1299Z" fill="#1D1D1D"/>
<path d="M0 5.53418H4.34916L4.4667 5.65172V11.529L5.28952 10.8237L5.7597 10.5886V10.3535H5.99479L6.11233 10.0009L7.05269 9.17807L8.11059 8.12017L9.05095 7.29735L9.99131 6.35699L10.9317 5.53418H16.5738L16.3387 6.00436L14.8106 7.4149L11.2843 10.5886L10.3439 11.4114L11.1668 12.7044L12.6948 14.8202L14.3405 17.1711L15.751 19.1694L17.044 20.9325V21.1676H11.6369L10.6966 19.7571L9.63868 18.229L8.11059 15.9957L7.05269 14.4676L6.22988 15.1729L5.28952 15.9957L4.58425 16.5834L4.4667 21.1676H0V5.53418Z" fill="#1D1D1D"/>
<path d="M77.579 5.53418H82.5158L83.6913 8.23771L86.1597 13.9974L86.865 15.7606L87.6878 17.5238L88.7457 20.1097L89.2159 21.1676H84.0439L83.2211 18.9343H76.7561L76.0509 20.9325L75.9333 21.1676H70.8789L71.2315 20.1097L72.8772 16.2308L73.4649 14.9378L74.6403 12.2342L77.4614 5.65172L77.579 5.53418ZM79.9299 9.76579L78.6369 13.6448L77.9316 15.5255V15.7606H82.1632L81.3404 13.4097L80.0474 9.76579H79.9299Z" fill="#1D1D1D"/>
<path d="M29.034 5.53418H33.9709L34.7937 7.29735L37.2622 13.057L38.2025 15.2904L39.0253 17.2887L39.6131 18.5817L40.5534 20.815L40.671 21.1676H35.499L34.6762 18.9343L28.2112 18.8167L27.9761 19.7571L27.506 21.0501L27.3884 21.1676H22.334L22.9217 19.6396L23.9796 17.1711L24.5673 15.8781L26.3305 11.7641L28.2112 7.4149L29.034 5.53418ZM31.3849 9.88334L30.0919 13.7623L29.3867 15.7606H33.6183L33.1481 14.2325L32.3253 11.9991L31.62 10.0009L31.3849 9.88334Z" fill="#1D1D1D"/>
<path d="M120.012 5.53418H134V8.82543H129.533V21.1676H124.714V9.06052L124.831 8.82543H120.129L120.012 8.70789V5.53418Z" fill="#1D1D1D"/>
<path d="M23.0371 0.833008H39.9636V3.65408H23.0371V3.53654V0.833008Z" fill="#1D1D1D"/>
</svg>
